PathFileType	4	(X/Y/Z)	D:\TRACE\spot_10-12-23\spot_body_baseline_4-v60.trc
DataRate	CameraRate	NumFrames	NumMarkers	Units	OrigDataRate	OrigDataStartFrame	OrigNumFrames
100.00	100.00	      17	9	mm	100.00	3501	      7000
Frame#	Time	front left toe			Front right toe			aft left toe			aft right toe			Arm			FL body			FR body			AL Body			AR Body			
		X1	Y1	Z1	X2	Y2	Z2	X3	Y3	Z3	X4	Y4	Z4	X5	Y5	Z5	X6	Y6	Z6	X7	Y7	Z7	X8	Y8	Z8	X9	Y9	Z9	

3501	35.000	-206.22397	24.32342	178.21175	266.01492	16.13306	133.02185	-164.21312	27.47901	618.11798	338.22189	15.07124	598.07147	69.46447	804.66003	-64.93094	-12.89116	542.72333	-34.54736	138.03003	548.86749	-53.46359	83.79301	556.12061	843.77246	234.20985	555.63605	829.85059	
3502	35.010	-206.25522	24.39364	178.28333	265.99399	16.14790	133.00427	-164.22681	27.22519	618.04443	338.09286	15.09901	598.08496	68.26558	805.07294	-64.49964	-13.16268	542.91687	-34.30322	137.89061	549.08344	-53.24738	83.69042	556.06146	843.96460	233.90819	555.48328	829.46722	
3503	35.020	-206.29648	24.41071	178.28340	265.96606	16.14029	133.01733	-164.14272	27.28087	617.92737	338.05185	15.11049	598.06653	68.11875	805.86444	-64.00943	-13.40890	543.20422	-34.12019	137.64857	549.47351	-52.94042	83.65520	555.89911	844.34644	233.61816	555.36932	829.63043	
3504	35.030	-206.28134	24.44548	178.26677	266.05563	16.23670	132.92224	-164.22972	27.14289	617.85101	338.03650	15.11410	598.09125	68.08810	806.52545	-63.53424	-13.57592	543.54901	-34.05993	137.50046	549.93707	-52.68724	83.43601	555.56989	844.72540	233.42188	555.34625	830.42175	
3505	35.040	-206.29233	24.42019	178.26485	266.09460	16.27579	132.90649	-164.26123	27.04140	617.87244	337.96237	15.09213	598.08136	67.69898	806.83228	-63.08541	-13.82138	543.92224	-34.00226	137.60493	549.80884	-51.85651	83.08196	555.34875	845.04456	233.03699	554.97736	830.74396	
3506	35.050	-206.36349	24.38092	178.23380	265.89780	16.30123	133.13760	-164.28242	26.85774	617.89154	337.95291	15.09929	598.07471	67.75850	806.91199	-62.67704	-13.97570	544.00854	-33.86707	137.42461	549.95453	-51.72524	81.74825	554.81573	844.51996	232.67004	554.87830	831.04065	
3507	35.060	-206.34398	24.25970	178.21899	265.82974	16.22125	133.14186	-164.35588	26.63706	617.97571	337.92325	15.11356	598.16180	67.46722	806.89471	-62.33330	-14.15600	543.82013	-33.63306	137.14478	550.19324	-51.97738	80.87543	554.56372	844.84143	231.91983	554.68378	831.44476	
3508	35.070	-206.39964	24.25268	178.20436	265.96927	16.34066	133.26363	-164.47321	26.55235	617.99292	337.85178	15.20123	598.23187	67.12570	806.81232	-62.18868	-14.36281	543.72217	-33.40434	137.03627	550.23047	-51.55207	80.23835	554.45453	845.14734	230.92427	554.57751	831.81451	
3509	35.080	-206.35977	24.33740	178.21678	265.97299	16.31887	133.28552	-164.59824	26.49534	618.07062	337.85483	15.39530	598.39001	66.72623	806.84949	-61.95239	-14.63414	543.77313	-33.21844	137.00125	550.18549	-51.09581	79.10220	554.09528	844.94708	230.25771	554.46161	831.94354	
3510	35.090	-206.38510	24.37221	178.20938	265.97144	16.46748	133.34367	-164.70090	26.50430	618.09772	337.76892	15.54341	598.45343	66.16602	806.93793	-61.60891	-15.08630	543.89215	-33.04577	136.32317	550.56024	-50.95831	78.90762	553.94073	845.38416	229.24239	554.16302	831.76898	
3511	35.100	-206.39714	24.32618	178.16324	265.91940	16.37641	133.31096	-164.74277	26.45065	618.10089	337.77335	15.65857	598.49127	65.72301	807.00195	-61.22387	-15.43839	543.85388	-32.81014	136.06038	550.39050	-50.18830	78.66310	553.46442	845.92804	228.64647	554.03479	831.98907	
3512	35.110	-206.44643	24.10843	178.21448	265.86551	16.44159	133.36844	-164.83430	26.28044	618.12671	337.63339	15.64093	598.40155	65.06895	807.01813	-60.97721	-15.81959	543.76733	-32.63955	135.62257	550.75391	-50.65504	76.95507	553.50061	845.80701	228.05196	554.07410	832.86804	
3513	35.120	-206.48901	23.99788	178.25500	265.84409	16.43864	133.36411	-164.90674	26.25167	618.18970	337.52515	15.62570	598.39532	64.29813	807.13556	-60.67440	-16.18871	543.70996	-32.55195	135.02689	550.99713	-50.50772	76.36117	553.09650	846.12872	227.21988	553.81396	833.10480	
3514	35.130	-206.54709	23.97519	178.29709	265.80945	16.53123	133.40009	-164.88728	26.23107	618.21204	337.48950	15.70900	598.45764	63.80258	807.17584	-60.35661	-16.80318	543.82843	-32.36861	134.45506	551.13129	-50.29987	75.39062	552.90088	846.43585	226.57130	553.56689	833.23035	
3515	35.140	-206.62257	24.11712	178.29036	265.71884	16.51629	133.35997	-164.93881	26.28356	618.25214	337.50598	15.78171	598.52533	62.58311	807.29395	-60.07661	-17.40051	543.93256	-32.22045	133.97084	551.27472	-50.06275	75.17250	552.50775	846.58063	227.17537	554.07397	834.37024	
3516	35.150	-206.65430	24.00045	178.33232	265.70474	16.51354	133.38528	-164.95671	26.23728	618.28680	337.47955	15.82358	598.56824	62.01469	807.24438	-59.76352	-17.95278	543.99579	-32.05995	132.49156	551.57544	-49.82435	74.84732	552.28577	846.83716	226.81129	553.97070	834.51178	
3517	35.160	-206.75508	23.70032	178.45773	265.54852	16.57162	133.35870	-165.02910	26.11182	618.27301	337.36243	15.74819	598.56110	61.10626	807.22467	-59.61010	-18.57230	543.52521	-31.82830	132.64134	551.05194	-49.20468	74.37171	552.01782	847.02374	226.19139	553.85443	834.67548	
